<svg width="49" height="49" viewBox="0 0 49 49" fill="none" xmlns="http://www.w3.org/2000/svg">
<rect x="0.333618" y="0.53125" width="48" height="48" rx="24" fill="#FFF2CE"/>
<g clip-path="url(#clip0_300_5265)">
<path d="M16.1999 18.2812C17.2765 18.2812 18.1499 17.4414 18.1499 16.4062C18.1499 15.3711 17.2765 14.5312 16.1999 14.5312C15.1233 14.5312 14.2499 15.3711 14.2499 16.4062C14.2499 17.4414 15.1233 18.2812 16.1999 18.2812ZM31.7999 18.2812C32.8765 18.2812 33.7499 17.4414 33.7499 16.4062C33.7499 15.3711 32.8765 14.5312 31.7999 14.5312C30.7233 14.5312 29.8499 15.3711 29.8499 16.4062C29.8499 17.4414 30.7233 18.2812 31.7999 18.2812ZM36.9065 32.8164L35.119 28.5195L33.4493 30.332L33.368 31.043L34.4933 33.7461C34.6965 34.2344 35.184 34.5312 35.6999 34.5312C35.8624 34.5312 36.0249 34.5039 36.1833 34.4414C36.8496 34.1836 37.1746 33.457 36.9065 32.8164ZM35.5171 24.6211L34.7655 21.4883C34.5787 20.707 34.0099 20.0508 33.2421 19.7344C32.4905 19.4219 31.6577 19.4727 30.963 19.8633C30.0408 20.3867 29.3502 21.2109 29.009 22.1836L28.5499 23.5078L27.8999 23.9062V20.1562C27.8999 19.8125 27.6074 19.5312 27.2499 19.5312H20.7499C20.3924 19.5312 20.0999 19.8125 20.0999 20.1562V23.9062L19.4458 23.5078L18.9868 22.1836C18.6496 21.207 17.9549 20.3867 17.0327 19.8633C16.334 19.4727 15.5052 19.4219 14.7537 19.7344C13.9858 20.0508 13.4171 20.707 13.2302 21.4883L12.4827 24.6211C12.2958 25.4023 12.5112 26.2305 13.0677 26.8359L15.7977 29.8008L16.208 33.418C16.2812 34.0547 16.8418 34.5312 17.4999 34.5312C17.5487 34.5312 17.5933 34.5273 17.6421 34.5234C18.3571 34.4492 18.869 33.832 18.7918 33.1445L18.3815 29.5195C18.3205 29.0117 18.1012 28.5391 17.7477 28.1523L15.9887 26.2383L16.7037 23.4922L16.9799 24.2891C17.1465 24.7773 17.4633 25.2031 17.9752 25.5625L20.0512 26.832C20.238 26.9453 20.5427 27.0117 20.7499 27.0273H27.2499C27.4571 27.0117 27.7618 26.9453 27.9487 26.832L30.0246 25.5625C30.5365 25.2031 30.8533 24.7812 31.0199 24.2891L31.2962 23.4922L32.0112 26.2383L30.2521 28.1523C29.8987 28.5391 29.6793 29.0117 29.6183 29.5195L29.208 33.1445C29.1308 33.832 29.6468 34.4492 30.3577 34.5234C30.4065 34.5273 30.4512 34.5312 30.4999 34.5312C31.154 34.5312 31.7187 34.0586 31.7918 33.418L32.2021 29.8008L34.9321 26.8359C35.4846 26.2305 35.704 25.4023 35.5171 24.6211ZM12.8808 28.5195L11.0933 32.8164C10.8252 33.457 11.1502 34.1836 11.8165 34.4414C12.499 34.6992 13.2424 34.375 13.5065 33.7461L14.6318 31.043L14.5505 30.332L12.8808 28.5195Z" fill="#A8882F"/>
</g>
<defs>
<clipPath id="clip0_300_5265">
<rect width="26" height="20" fill="white" transform="translate(11.0001 14.5312)"/>
</clipPath>
</defs>
</svg>
