<svg width="49" height="48" viewBox="0 0 49 48" fill="none" xmlns="http://www.w3.org/2000/svg">
<rect x="0.333984" width="48" height="48" rx="24" fill="#FFF2CE"/>
<g clip-path="url(#clip0_11_20707)">
<path d="M16.1996 17.75C17.2762 17.75 18.1496 16.9102 18.1496 15.875C18.1496 14.8398 17.2762 14 16.1996 14C15.1231 14 14.2496 14.8398 14.2496 15.875C14.2496 16.9102 15.1231 17.75 16.1996 17.75ZM31.7996 17.75C32.8762 17.75 33.7496 16.9102 33.7496 15.875C33.7496 14.8398 32.8762 14 31.7996 14C30.7231 14 29.8496 14.8398 29.8496 15.875C29.8496 16.9102 30.7231 17.75 31.7996 17.75ZM36.9062 32.2852L35.1187 27.9883L33.449 29.8008L33.3678 30.5117L34.4931 33.2148C34.6962 33.7031 35.1837 34 35.6996 34C35.8621 34 36.0246 33.9727 36.1831 33.9102C36.8493 33.6523 37.1743 32.9258 36.9062 32.2852ZM35.5168 24.0898L34.7653 20.957C34.5784 20.1758 34.0096 19.5195 33.2418 19.2031C32.4903 18.8906 31.6574 18.9414 30.9628 19.332C30.0406 19.8555 29.3499 20.6797 29.0087 21.6523L28.5496 22.9766L27.8996 23.375V19.625C27.8996 19.2812 27.6071 19 27.2496 19H20.7496C20.3921 19 20.0996 19.2812 20.0996 19.625V23.375L19.4456 22.9766L18.9865 21.6523C18.6493 20.6758 17.9546 19.8555 17.0324 19.332C16.3337 18.9414 15.5049 18.8906 14.7534 19.2031C13.9856 19.5195 13.4168 20.1758 13.2299 20.957L12.4824 24.0898C12.2956 24.8711 12.5109 25.6992 13.0674 26.3047L15.7974 29.2695L16.2078 32.8867C16.2809 33.5234 16.8415 34 17.4996 34C17.5484 34 17.5931 33.9961 17.6418 33.9922C18.3568 33.918 18.8687 33.3008 18.7915 32.6133L18.3812 28.9883C18.3203 28.4805 18.1009 28.0078 17.7474 27.6211L15.9884 25.707L16.7034 22.9609L16.9796 23.7578C17.1462 24.2461 17.4631 24.6719 17.9749 25.0312L20.0509 26.3008C20.2378 26.4141 20.5424 26.4805 20.7496 26.4961H27.2496C27.4568 26.4805 27.7615 26.4141 27.9484 26.3008L30.0243 25.0312C30.5362 24.6719 30.8531 24.25 31.0196 23.7578L31.2959 22.9609L32.0109 25.707L30.2518 27.6211C29.8984 28.0078 29.679 28.4805 29.6181 28.9883L29.2078 32.6133C29.1306 33.3008 29.6465 33.918 30.3574 33.9922C30.4062 33.9961 30.4509 34 30.4996 34C31.1537 34 31.7184 33.5273 31.7915 32.8867L32.2018 29.2695L34.9318 26.3047C35.4843 25.6992 35.7037 24.8711 35.5168 24.0898ZM12.8806 27.9883L11.0931 32.2852C10.8249 32.9258 11.1499 33.6523 11.8162 33.9102C12.4987 34.168 13.2421 33.8438 13.5062 33.2148L14.6315 30.5117L14.5503 29.8008L12.8806 27.9883Z" fill="#A8882F"/>
</g>
<defs>
<clipPath id="clip0_11_20707">
<rect width="26" height="20" fill="white" transform="translate(11 14)"/>
</clipPath>
</defs>
</svg>
