<svg width="136" height="24" viewBox="0 0 136 24" fill="none" xmlns="http://www.w3.org/2000/svg">
<path d="M10.6087 2.93808C11.1137 1.68633 12.8859 1.68633 13.3908 2.93808L15.3281 7.7402C15.3989 7.91563 15.5626 8.0361 15.7511 8.05148L20.6173 8.44854C21.9367 8.5562 22.48 10.1956 21.4859 11.0699L17.7934 14.3176C17.6568 14.4378 17.5962 14.6227 17.6353 14.8005L18.8161 20.1675C19.1111 21.5082 17.5994 22.5079 16.4811 21.7117L12.2898 18.7274C12.1162 18.6038 11.8833 18.6038 11.7098 18.7274L7.51842 21.7117C6.40016 22.5079 4.88847 21.5082 5.18343 20.1675L6.36421 14.8005C6.40331 14.6227 6.34275 14.4378 6.2061 14.3176L2.51346 11.0699C1.5194 10.1957 2.06266 8.5562 3.38209 8.44854L8.2484 8.05148C8.43694 8.0361 8.60066 7.91563 8.67143 7.7402L10.6087 2.93808Z" fill="#A8882F"/>
<path d="M38.6087 2.93808C39.1137 1.68633 40.8859 1.68633 41.3908 2.93808L43.3281 7.7402C43.3989 7.91563 43.5626 8.0361 43.7511 8.05148L48.6173 8.44854C49.9367 8.5562 50.48 10.1956 49.4859 11.0699L45.7934 14.3176C45.6568 14.4378 45.5962 14.6227 45.6353 14.8005L46.8161 20.1675C47.1111 21.5082 45.5994 22.5079 44.4811 21.7117L40.2898 18.7274C40.1162 18.6038 39.8833 18.6038 39.7098 18.7274L35.5184 21.7117C34.4002 22.5079 32.8885 21.5082 33.1834 20.1675L34.3642 14.8005C34.4033 14.6227 34.3428 14.4378 34.2061 14.3176L30.5135 11.0699C29.5194 10.1957 30.0627 8.5562 31.3821 8.44854L36.2484 8.05148C36.4369 8.0361 36.6007 7.91563 36.6714 7.7402L38.6087 2.93808Z" fill="#A8882F"/>
<path d="M66.6087 2.93808C67.1137 1.68633 68.8859 1.68633 69.3908 2.93808L71.3281 7.7402C71.3989 7.91563 71.5626 8.0361 71.7511 8.05148L76.6173 8.44854C77.9367 8.5562 78.48 10.1956 77.4859 11.0699L73.7934 14.3176C73.6568 14.4378 73.5962 14.6227 73.6353 14.8005L74.8161 20.1675C75.1111 21.5082 73.5994 22.5079 72.4811 21.7117L68.2898 18.7274C68.1162 18.6038 67.8833 18.6038 67.7098 18.7274L63.5184 21.7117C62.4002 22.5079 60.8885 21.5082 61.1834 20.1675L62.3642 14.8005C62.4033 14.6227 62.3428 14.4378 62.2061 14.3176L58.5135 11.0699C57.5194 10.1957 58.0627 8.5562 59.3821 8.44854L64.2484 8.05148C64.4369 8.0361 64.6007 7.91563 64.6714 7.7402L66.6087 2.93808Z" fill="#A8882F"/>
<path d="M94.6087 2.93808C95.1137 1.68633 96.8859 1.68633 97.3908 2.93808L99.3281 7.7402C99.3989 7.91563 99.5626 8.0361 99.7511 8.05148L104.617 8.44854C105.937 8.5562 106.48 10.1956 105.486 11.0699L101.793 14.3176C101.657 14.4378 101.596 14.6227 101.635 14.8005L102.816 20.1675C103.111 21.5082 101.599 22.5079 100.481 21.7117L96.2898 18.7274C96.1162 18.6038 95.8833 18.6038 95.7098 18.7274L91.5184 21.7117C90.4002 22.5079 88.8885 21.5082 89.1834 20.1675L90.3642 14.8005C90.4033 14.6227 90.3428 14.4378 90.2061 14.3176L86.5135 11.0699C85.5194 10.1957 86.0627 8.5562 87.3821 8.44854L92.2484 8.05148C92.4369 8.0361 92.6007 7.91563 92.6714 7.7402L94.6087 2.93808Z" fill="#A8882F"/>
<path d="M122.609 2.93808C123.114 1.68633 124.886 1.68633 125.391 2.93808L127.328 7.7402C127.399 7.91563 127.563 8.0361 127.751 8.05148L132.617 8.44854C133.937 8.5562 134.48 10.1956 133.486 11.0699L129.793 14.3176C129.657 14.4378 129.596 14.6227 129.635 14.8005L130.816 20.1675C131.111 21.5082 129.599 22.5079 128.481 21.7117L124.29 18.7274C124.116 18.6038 123.883 18.6038 123.71 18.7274L119.518 21.7117C118.4 22.5079 116.888 21.5082 117.183 20.1675L118.364 14.8005C118.403 14.6227 118.343 14.4378 118.206 14.3176L114.513 11.0699C113.519 10.1957 114.063 8.5562 115.382 8.44854L120.248 8.05148C120.437 8.0361 120.601 7.91563 120.671 7.7402L122.609 2.93808Z" fill="#A8882F"/>
</svg>
