<svg width="48" height="49" viewBox="0 0 48 49" fill="none" xmlns="http://www.w3.org/2000/svg">
<rect x="0.00012207" y="0.53125" width="48" height="48" rx="24" fill="#FFF2CE"/>
<path d="M33.0001 32.5312H32.0001V17.5312C32.0001 17.266 31.8948 17.0117 31.7072 16.8241C31.5197 16.6366 31.2653 16.5312 31.0001 16.5312C30.7349 16.5312 30.4806 16.6366 30.293 16.8241C30.1055 17.0117 30.0001 17.266 30.0001 17.5312V32.5312H28.0001V21.5312C28.0001 21.266 27.8948 21.0117 27.7072 20.8241C27.5197 20.6366 27.2653 20.5312 27.0001 20.5312C26.7349 20.5312 26.4806 20.6366 26.293 20.8241C26.1055 21.0117 26.0001 21.266 26.0001 21.5312V32.5312H24.0001V25.5312C24.0001 25.266 23.8948 25.0117 23.7072 24.8241C23.5197 24.6366 23.2653 24.5312 23.0001 24.5312C22.7349 24.5312 22.4806 24.6366 22.293 24.8241C22.1055 25.0117 22.0001 25.266 22.0001 25.5312V32.5312H20.0001V29.5312C20.0001 29.266 19.8948 29.0117 19.7072 28.8241C19.5197 28.6366 19.2653 28.5312 19.0001 28.5312C18.7349 28.5312 18.4806 28.6366 18.293 28.8241C18.1055 29.0117 18.0001 29.266 18.0001 29.5312V32.5312H16.0001V15.5312C16.0001 15.266 15.8948 15.0117 15.7072 14.8241C15.5197 14.6366 15.2653 14.5312 15.0001 14.5312C14.7349 14.5312 14.4806 14.6366 14.293 14.8241C14.1055 15.0117 14.0001 15.266 14.0001 15.5312V33.5312C14.0001 33.7965 14.1055 34.0508 14.293 34.2384C14.4806 34.4259 14.7349 34.5312 15.0001 34.5312H33.0001C33.2653 34.5312 33.5197 34.4259 33.7072 34.2384C33.8948 34.0508 34.0001 33.7965 34.0001 33.5312C34.0001 33.266 33.8948 33.0117 33.7072 32.8241C33.5197 32.6366 33.2653 32.5312 33.0001 32.5312Z" fill="#A8882F"/>
</svg>
